<svg xmlns="http://www.w3.org/2000/svg" width="46" height="46" viewBox="0 0 46 46"><path d="M36.496 15.737h-8.108v-2.014h8.109v2.014h-.001zM22.99 23.996c.524.81.785 1.794.785 2.95 0 1.194-.295 2.265-.894 3.212a5.57 5.57 0 0 1-1.425 1.581c-.64.493-1.4.83-2.272 1.011-.875.181-1.822.272-2.843.272H7.274V12.888h9.723c2.451.04 4.189.75 5.215 2.145.616.855.92 1.881.92 3.074 0 1.231-.308 2.216-.93 2.965-.346.42-.856.8-1.533 1.145 1.025.375 1.802.966 2.321 1.779zm-11.073-3.17h4.26c.876 0 1.584-.166 2.129-.499.545-.332.817-.923.817-1.77 0-.937-.36-1.558-1.082-1.858-.62-.208-1.414-.315-2.377-.315h-3.747v4.442zm7.616 5.832c0-1.046-.428-1.77-1.28-2.157-.478-.22-1.151-.333-2.014-.341h-4.322v5.365h4.255c.874 0 1.55-.114 2.039-.353.88-.439 1.322-1.274 1.322-2.514zm19.971-3.276c.098.659.143 1.615.125 2.864H29.128c.058 1.45.558 2.463 1.507 3.043.572.364 1.266.541 2.079.541.857 0 1.555-.216 2.092-.662.293-.236.552-.569.775-.989h3.849c-.101.856-.564 1.724-1.397 2.607-1.29 1.402-3.1 2.105-5.424 2.105-1.92 0-3.612-.593-5.08-1.775-1.465-1.186-2.2-3.109-2.2-5.777 0-2.502.66-4.417 1.985-5.75 1.329-1.335 3.045-2 5.16-2 1.253 0 2.383.224 3.39.674 1.005.451 1.836 1.16 2.49 2.136.592.859.973 1.852 1.15 2.983zm-3.788.376c-.07-1.002-.405-1.76-1.008-2.28-.597-.52-1.344-.78-2.235-.78-.97 0-1.718.279-2.25.827-.535.547-.868 1.291-1.005 2.233h6.498z"/></svg>