<svg xmlns="http://www.w3.org/2000/svg" width="46" height="46" viewBox="0 0 46 46"><path fill="#010101" d="M31.786 8.677H14.213a5.54 5.54 0 0 0-5.536 5.536v17.573a5.541 5.541 0 0 0 5.536 5.537h17.574a5.542 5.542 0 0 0 5.536-5.537V14.213a5.542 5.542 0 0 0-5.537-5.536zm1.59 3.3l.632-.001v4.855l-4.84.016-.015-4.856 4.224-.013zM18.914 20.06a5.04 5.04 0 0 1 4.089-2.102c1.682 0 3.171.833 4.087 2.102.595.828.954 1.842.954 2.94a5.05 5.05 0 0 1-5.044 5.041 5.045 5.045 0 0 1-5.04-5.043 5.019 5.019 0 0 1 .954-2.938zM34.53 31.786a2.746 2.746 0 0 1-2.745 2.743H14.212a2.745 2.745 0 0 1-2.745-2.743V20.06h4.276c-.37.907-.577 1.9-.577 2.94 0 4.318 3.513 7.834 7.834 7.834 4.32 0 7.834-3.516 7.834-7.835 0-1.038-.21-2.032-.582-2.939h4.278v11.727z"/></svg>