<svg xmlns="http://www.w3.org/2000/svg" width="46" height="46" viewBox="0 0 46 46"><path fill="#060507" d="M19.324 27.454c-.725.65-2.116 1.953-4.433 1.953-2.732 0-5.365-2.395-5.365-6.227 0-4.91 3.147-6.494 5.563-6.494 3.485 0 4.248 2.103 5.198 5.017l1.268 3.992c1.267 3.872 3.643 6.985 10.494 6.985 4.91 0 8.237-1.516 8.237-5.508 0-3.234-1.823-4.91-5.228-5.709l-2.534-.558c-1.743-.4-2.257-1.118-2.257-2.316 0-1.358 1.069-2.155 2.812-2.155 1.9 0 2.93.718 3.089 2.434l3.96-.478c-.318-3.593-2.773-5.07-6.812-5.07-3.564 0-7.049 1.357-7.049 5.708 0 2.715 1.307 4.431 4.593 5.23l2.694.638c2.02.48 2.692 1.318 2.692 2.476 0 1.476-1.426 2.075-4.118 2.075-4 0-6.009-2.116-6.96-5.03l-1.306-3.991c-1.663-5.19-3.625-7.106-8.892-7.106-4.696 0-9.256 3.712-9.256 10.02 0 6.067 4.378 9.34 8.979 9.34 3.327 0 5.018-1.17 5.842-1.769l-1.211-3.457z"/></svg>