<svg xmlns="http://www.w3.org/2000/svg" width="46" height="46" viewBox="0 0 46 46"><path d="M40 12.463a13.487 13.487 0 0 1-3.878 1.063 6.782 6.782 0 0 0 2.969-3.734 13.616 13.616 0 0 1-4.292 1.64 6.735 6.735 0 0 0-4.93-2.133 6.754 6.754 0 0 0-6.579 8.29c-5.612-.281-10.589-2.97-13.92-7.056a6.703 6.703 0 0 0-.913 3.394 6.75 6.75 0 0 0 3.004 5.621A6.754 6.754 0 0 1 8.4 18.7v.085a6.76 6.76 0 0 0 5.418 6.622 6.841 6.841 0 0 1-1.78.237c-.436 0-.858-.043-1.271-.126a6.757 6.757 0 0 0 6.307 4.691 13.55 13.55 0 0 1-8.387 2.887c-.546 0-1.083-.033-1.611-.093a19.091 19.091 0 0 0 10.352 3.039c12.424 0 19.216-10.291 19.216-19.216l-.023-.874A13.487 13.487 0 0 0 40 12.462z"/></svg>