<svg version="1" xmlns="http://www.w3.org/2000/svg" width="413.333" height="413.333" viewBox="0 0 310.000000 310.000000"><path d="M137.5.7c-2.5.3-10 1.7-20 3.7-6.3 1.3-20.4 6.4-29.4 10.8-47.2 22.6-79 66-86.9 118.8-.9 5.6-.9 34.7 0 41.5 7 57.2 48.9 108 104 126.4 18 6 28.7 7.6 50.3 7.6 20.7-.1 28.3-1.2 46-6.6 35-10.7 66.1-35 85.8-66.9 7.5-12.3 17-35.2 19-46 .3-1.4.8-4.1 1.2-6 .3-1.9.9-4.9 1.1-6.5 1-5.6 1.2-36 .3-42.5-7-51.9-40.6-98.3-86.9-119.9-11.1-5.1-24-9.6-33.2-11.5-4-.8-8.6-1.8-10.3-2.1-3.4-.8-36.4-1.4-41-.8z"/></svg>