<svg xmlns="http://www.w3.org/2000/svg" width="46" height="230" viewBox="0 0 46 230"><svg xmlns:xlink="http://www.w3.org/1999/xlink" height="46" viewBox="0 0 46 46" width="46"><path d="M36.496 15.737h-8.108v-2.014h8.109v2.014h-.001zM22.99 23.996c.523.81.785 1.794.785 2.95 0 1.194-.295 2.265-.895 3.212a5.57 5.57 0 0 1-1.424 1.581c-.641.493-1.4.83-2.272 1.011-.876.181-1.823.272-2.843.272H7.272V12.888h9.724c2.451.04 4.189.75 5.215 2.145.616.855.92 1.882.92 3.075 0 1.23-.308 2.216-.93 2.964-.346.42-.857.801-1.533 1.146 1.024.374 1.801.965 2.32 1.778zm-11.073-3.17h4.26c.876 0 1.584-.166 2.129-.5.545-.331.817-.922.817-1.77 0-.936-.36-1.558-1.082-1.857-.62-.208-1.414-.315-2.377-.315h-3.747v4.441zm7.616 5.832c0-1.046-.427-1.769-1.28-2.157-.478-.22-1.151-.333-2.014-.341h-4.322v5.366h4.255c.874 0 1.55-.115 2.039-.354.88-.44 1.322-1.275 1.322-2.515zm19.971-3.276c.098.659.142 1.615.124 2.864h-10.5c.058 1.45.559 2.463 1.508 3.043.572.363 1.266.541 2.078.541.857 0 1.555-.217 2.093-.662.293-.236.551-.569.774-.99h3.85c-.102.857-.565 1.725-1.398 2.607-1.29 1.403-3.1 2.106-5.424 2.106-1.92 0-3.612-.593-5.08-1.775-1.464-1.186-2.2-3.11-2.2-5.777 0-2.502.66-4.417 1.985-5.75 1.33-1.336 3.045-2 5.16-2 1.253 0 2.383.224 3.391.674 1.005.45 1.836 1.16 2.49 2.136.592.858.973 1.85 1.15 2.982zm-3.788.376c-.07-1.002-.405-1.76-1.008-2.28-.597-.519-1.344-.78-2.234-.78-.97 0-1.718.279-2.25.827-.536.547-.87 1.291-1.006 2.233h6.498z"/></svg><svg xmlns:xlink="http://www.w3.org/1999/xlink" height="46" viewBox="0 0 46 46" width="46" y="46"><path d="M29.929 23.281h-4.142v14.76h-6.136v-14.76h-2.917v-5.217h2.916V14.69c0-2.417 1.149-6.193 6.193-6.193l4.548.017v5.064h-3.3c-.538 0-1.302.27-1.302 1.422v3.065h4.676l-.535 5.216z" fill="#010101"/></svg><svg xmlns:xlink="http://www.w3.org/1999/xlink" height="46" viewBox="0 0 46 46" width="46" y="92"><path d="M31.786 8.677H14.213a5.54 5.54 0 0 0-5.536 5.536v17.574a5.541 5.541 0 0 0 5.536 5.536h17.574a5.542 5.542 0 0 0 5.536-5.536V14.212a5.542 5.542 0 0 0-5.537-5.535zm1.591 3.301l.632-.002v4.855l-4.84.016-.016-4.856 4.224-.013zm-14.464 8.081a5.04 5.04 0 0 1 4.089-2.102c1.682 0 3.171.833 4.087 2.103.595.828.954 1.841.954 2.939a5.05 5.05 0 0 1-5.044 5.041 5.045 5.045 0 0 1-5.04-5.042 5.013 5.013 0 0 1 .954-2.94zM34.53 31.786a2.746 2.746 0 0 1-2.745 2.743H14.212a2.745 2.745 0 0 1-2.745-2.743V20.059h4.276c-.37.907-.576 1.9-.576 2.939 0 4.318 3.513 7.834 7.833 7.834s7.835-3.516 7.835-7.834c0-1.039-.21-2.032-.583-2.939h4.278v11.727z" fill="#010101"/></svg><svg xmlns:xlink="http://www.w3.org/1999/xlink" height="46" viewBox="0 0 46 46" width="46" y="138"><path d="M19.324 27.454c-.725.65-2.116 1.953-4.433 1.953-2.732 0-5.364-2.395-5.364-6.228 0-4.91 3.146-6.493 5.562-6.493 3.485 0 4.248 2.102 5.198 5.017l1.268 3.992c1.267 3.872 3.643 6.985 10.494 6.985 4.91 0 8.237-1.517 8.237-5.508 0-3.234-1.822-4.91-5.228-5.71l-2.534-.558c-1.742-.399-2.257-1.118-2.257-2.316 0-1.357 1.07-2.155 2.812-2.155 1.9 0 2.93.719 3.09 2.435l3.959-.479c-.317-3.593-2.773-5.07-6.812-5.07-3.564 0-7.049 1.358-7.049 5.71 0 2.714 1.307 4.43 4.593 5.229l2.694.638c2.02.48 2.692 1.318 2.692 2.476 0 1.476-1.426 2.075-4.118 2.075-4 0-6.009-2.116-6.96-5.03l-1.306-3.991c-1.663-5.19-3.625-7.106-8.892-7.106-4.696 0-9.256 3.712-9.256 10.019 0 6.068 4.378 9.34 8.979 9.34 3.327 0 5.018-1.169 5.843-1.768l-1.213-3.457z" fill="#060507"/></svg><svg xmlns:xlink="http://www.w3.org/1999/xlink" height="46" viewBox="0 0 46 46" width="46" y="184"><path d="M40 12.463a13.49 13.49 0 0 1-3.878 1.064 6.782 6.782 0 0 0 2.969-3.734 13.616 13.616 0 0 1-4.292 1.64 6.735 6.735 0 0 0-4.93-2.134 6.754 6.754 0 0 0-6.579 8.29c-5.612-.281-10.589-2.97-13.92-7.056a6.702 6.702 0 0 0-.913 3.395 6.75 6.75 0 0 0 3.004 5.62 6.754 6.754 0 0 1-3.06-.847v.084a6.76 6.76 0 0 0 5.417 6.623 6.841 6.841 0 0 1-1.78.236c-.435 0-.857-.043-1.27-.125a6.757 6.757 0 0 0 6.307 4.69 13.55 13.55 0 0 1-8.388 2.887c-.545 0-1.082-.033-1.61-.093a19.09 19.09 0 0 0 10.352 3.039c12.424 0 19.215-10.291 19.215-19.215l-.023-.875A13.493 13.493 0 0 0 40 12.462z"/></svg></svg>