<svg data-name="Layer 1" xmlns="http://www.w3.org/2000/svg" viewBox="0 0 1227.101 400.896"><title>vm-logo-anim</title><g fill="none" stroke="#3f2f4d" stroke-linejoin="bevel"><path d="M.446.813h204.36L16.738 32.802l211.158 13.346L44.463 87.236 254.63 98.639l-147.319 111.99 181.237-45.394-148.086 110.48h91.816l-71.414 40.057 38.334 24.892-12.828 25.186"/><path d="M186.37 365.85L.446.813l198.752 339.851L113.545.813l118.733 274.902L126.72.35l161.828 164.885L204.806.813"/><path d="M288.548 165.235L186.37 365.85l68.26-267.211-142.533 121.386L227.896 46.148.446.813"/></g><g fill="none" stroke="#3f2f4d" stroke-linejoin="bevel"><path d="M409.219 399.067H204.861l223.42-37.128-166.715-73.316L609.449 9.083l-200.23-8.039 96.404 210.258-249.158 87.257 238.247-66.005-278.331 144.075"/><path d="M613.577 1.044H409.219L603.22 21.215 395.142 28.46l89.229 224.235-235.262 60.191h204.358l-243.04 75.341 198.792 10.84"/><path d="M204.861 399.067L409.219 1.044 210.427 399.067 445.693 1.044l-86.134 398.023"/><path d="M409.219 399.067L611.718 4.664 311.863 399.067 433.211 1.737l-195.544 397.33 83.811-227.134"/></g><g fill="none" stroke="#3f2f4d" stroke-linejoin="bevel"><path d="M697.321 165.236L632.013 37.013l44.435 169.205-125.077-10.875 43.772 170.507-65.308-128.226 93.127 73.606-82.507-94.456"/><path d="M595.143 365.85l102.178-200.614-125.93 153.978L650.603 73.51l-89.109 222.584 81.154-238.202-112.813 179.732L632.013 37.013"/></g><g fill="none" stroke="#3f2f4d" stroke-linejoin="bevel"><path d="M817.936 399.067H613.577l221.414-33.217H630.632l243.09-75.435h-204.36L972.875 97.298 804.22 27.758l83.289 235.804-171.753-63.507L989.11 65.679 807.986 20.422l184.16 39.344-18.067-58.029L730.012 172.29l162.604 81.325"/><path d="M817.936 1.044h204.36L643.875 340.056l196.498 15.31-226.796 43.701 213.685-18.164-191.247-25.537 330.829-246.322"/><path d="M613.577 399.067L817.936 1.044l-67.601 398.023L992.146 1.737l-174.21 397.33 204.36-398.023"/></g><g fill="none" stroke="#3f2f4d" stroke-miterlimit="10"><path d="M1226.656 399.067h-204.36l178.619-50.332-262.364-113.344 116.545-171.779-94.604 214.661 117.391-170.105L977.441 311.4l235.432 60.717"/><path d="M1226.656 399.067l-215.132-25.657 173.581-55.589-197.116 14.194 111.727-181.156-139.308 41.78 243.898 162.727-182.01 43.701-83.745-163.676L1040.73 35.522"/><path d="M1226.655 399.066L1040.73 35.522l152.469 363.544-232.792-206.428 61.889 206.428"/></g></svg>